<?xml version="1.0" encoding="UTF-8" standalone="no"?>
<svg
   width="900px"
   height="900px"
   viewBox="0 0 900 900"
   version="1.1"
   xml:space="preserve"
   id="SVGRoot"
   xmlns="http://www.w3.org/2000/svg"
   xmlns:svg="http://www.w3.org/2000/svg"><defs
   id="defs2" />

<style
   type="text/css"
   id="style1">
g.prefab path {
  vector-effect:non-scaling-stroke;
  -inkscape-stroke:hairline;
  fill: none;
  fill-opacity: 1;
  stroke-opacity: 1;
  stroke: #00349c;
}
</style>

<path
   style="fill:#000000;fill-opacity:1;stroke:none;stroke-width:1px;stroke-linecap:butt;stroke-linejoin:miter;stroke-opacity:1;paint-order:markers fill stroke"
   d="m 107.83959,211.47959 148.07653,0.60937 v 9.14053 l -23.76533,1.21871 -4.87497,13.40613 2.43747,15.84355 141.98289,338.80892 98.32984,-273.1251 3.44711,-40.50354 -2.58533,-33.6093 -13.78841,-18.09733 -11.20315,-3.44708 -14.65019,-3.44709 -0.86178,-11.20309 227.71507,0.74914 12.18738,5.48432 24.98408,8.53114 26.20285,17.6717 26.20284,23.76531 15.23423,37.78085 1.82809,65.20245 -13.40609,21.32791 -15.23423,19.49979 -25.59346,18.28107 -35.95276,13.40609 -10.96863,3.04683 h 26.81224 l 20.10915,3.65623 18.28107,7.3124 18.89039,10.96861 27.4216,26.81224 14.01548,28.64029 3.04684,23.76539 v 29.2497 l -0.60938,16.45292 -1.82809,16.45298 -3.65622,7.92178 -3.65624,10.35924 -14.62483,20.1092 -20.10916,12.79672 -19.49977,8.53115 -11.57799,4.26559 -17.6717,7.92179 -21.9373,3.04684 -35.34331,1.21877 -57.89001,0.60932 -44.48393,0.60937 h -5.4843 v -7.31239 l 125.52993,-0.60937 10.96861,-5.48433 15.84355,-5.4843 15.23422,-9.7499 7.31245,-7.31247 12.79671,-16.45292 9.14054,-19.49977 5.4843,-17.67169 3.04683,-19.49979 v -15.84359 l -3.65621,-26.81224 -6.70301,-19.49976 -10.96868,-20.71853 -15.23416,-17.6717 -12.18738,-9.74985 -10.35931,-6.70308 -13.40607,-4.87492 -19.49978,-2.43754 -48.14014,1.21878 -67.03055,1.21876 -1.21869,-6.70307 1.21869,-6.09369 106.63953,-1.21878 20.10916,-7.92176 14.62485,-13.40609 13.40607,-20.10916 7.31246,-13.40614 5.4843,-13.40608 3.04686,-11.578 1.2187,-12.79677 v -7.31239 -26.20283 l -1.2187,-9.74993 -4.87499,-15.84353 -3.65617,-9.74993 -3.65622,-7.92177 -5.48431,-6.70307 -8.53117,-14.62486 -5.4843,-6.70307 -8.53123,-6.0937 -11.57799,-7.92176 -7.92177,-1.82809 -4.87493,-1.82813 -16.45292,-0.60933 h -60.32753 l -10.35923,0.60933 -6.09369,4.26559 -12.18739,10.35926 -7.3124,7.31244 -9.14054,10.35925 -12.18737,15.23421 -9.74992,17.06232 -3.65617,8.53116 -1.82813,7.92182 -6.0937,17.67164 -6.703,18.28107 -123.70184,341.85575 -2.43746,6.09362 -6.09369,-0.60932 -176.12297,-416.80302 -11.20311,-19.82088 -9.47956,-12.06487 -10.34132,-9.47956 -7.32509,-4.73977 z"
   id="path3" /><path
   style="opacity:0.99;fill:#ffffff;fill-opacity:1;stroke:none;stroke-width:0.999999;stroke-opacity:0.913386;paint-order:fill markers stroke"
   d=""
   id="path11" /><text
   xml:space="preserve"
   style="font-style:normal;font-variant:normal;font-weight:normal;font-stretch:normal;font-size:48px;line-height:1.55;font-family:'High Tower Text';-inkscape-font-specification:'High Tower Text';text-align:center;letter-spacing:0.01px;writing-mode:lr-tb;direction:ltr;text-anchor:middle;opacity:0.99;fill:#000000;fill-opacity:1;stroke:none;stroke-opacity:0.913386;paint-order:markers fill stroke"
   x="449.66016"
   y="811.6131"
   id="text18"><tspan
     x="449.66516"
     y="811.6131"
     id="tspan19">Vikas Bhor</tspan></text></svg>
